<?xml version="1.0" encoding="UTF-8" standalone="no"?>
<!DOCTYPE svg PUBLIC "-//W3C//DTD SVG 1.1//EN"
 "http://www.w3.org/Graphics/SVG/1.1/DTD/svg11.dtd">
<!-- Generated by graphviz version 2.43.0 (0)
 -->
<!-- Title: include/logger/ALogger.hpp Pages: 1 -->
<svg width="610pt" height="196pt"
 viewBox="0.00 0.00 610.00 196.00" xmlns="http://www.w3.org/2000/svg" xmlns:xlink="http://www.w3.org/1999/xlink">
<g id="graph0" class="graph" transform="scale(1 1) rotate(0) translate(4 192)">
<title>include/logger/ALogger.hpp</title>
<polygon fill="white" stroke="transparent" points="-4,4 -4,-192 606,-192 606,4 -4,4"/>
<!-- Node1 -->
<g id="node1" class="node">
<title>Node1</title>
<g id="a_node1"><a xlink:title=" ">
<polygon fill="#bfbfbf" stroke="black" points="220,-168.5 220,-187.5 369,-187.5 369,-168.5 220,-168.5"/>
<text text-anchor="middle" x="294.5" y="-175.5" font-family="Helvetica,sans-Serif" font-size="10.00">include/logger/ALogger.hpp</text>
</a>
</g>
</g>
<!-- Node2 -->
<g id="node2" class="node">
<title>Node2</title>
<g id="a_node2"><a xlink:href="ALogger_8cpp.html" target="_top" xlink:title=" ">
<polygon fill="white" stroke="black" points="0,-112.5 0,-131.5 127,-131.5 127,-112.5 0,-112.5"/>
<text text-anchor="middle" x="63.5" y="-119.5" font-family="Helvetica,sans-Serif" font-size="10.00">src/logger/ALogger.cpp</text>
</a>
</g>
</g>
<!-- Node1&#45;&gt;Node2 -->
<g id="edge1" class="edge">
<title>Node1&#45;&gt;Node2</title>
<path fill="none" stroke="midnightblue" d="M248.1,-166.15C204.45,-155.95 139.99,-140.88 99.93,-131.52"/>
<polygon fill="midnightblue" stroke="midnightblue" points="247.36,-169.58 257.9,-168.44 248.96,-162.76 247.36,-169.58"/>
</g>
<!-- Node3 -->
<g id="node3" class="node">
<title>Node3</title>
<g id="a_node3"><a xlink:href="ConsoleLogger_8hpp.html" target="_top" xlink:title=" ">
<polygon fill="white" stroke="black" points="145,-112.5 145,-131.5 326,-131.5 326,-112.5 145,-112.5"/>
<text text-anchor="middle" x="235.5" y="-119.5" font-family="Helvetica,sans-Serif" font-size="10.00">include/logger/ConsoleLogger.hpp</text>
</a>
</g>
</g>
<!-- Node1&#45;&gt;Node3 -->
<g id="edge2" class="edge">
<title>Node1&#45;&gt;Node3</title>
<path fill="none" stroke="midnightblue" d="M277.61,-161.54C267.09,-151.91 253.93,-139.87 245.15,-131.83"/>
<polygon fill="midnightblue" stroke="midnightblue" points="275.28,-164.15 285.02,-168.32 280.01,-158.99 275.28,-164.15"/>
</g>
<!-- Node5 -->
<g id="node5" class="node">
<title>Node5</title>
<g id="a_node5"><a xlink:href="LoggerManager_8hpp.html" target="_top" xlink:title=" ">
<polygon fill="white" stroke="black" points="262,-56.5 262,-75.5 447,-75.5 447,-56.5 262,-56.5"/>
<text text-anchor="middle" x="354.5" y="-63.5" font-family="Helvetica,sans-Serif" font-size="10.00">include/logger/LoggerManager.hpp</text>
</a>
</g>
</g>
<!-- Node1&#45;&gt;Node5 -->
<g id="edge10" class="edge">
<title>Node1&#45;&gt;Node5</title>
<path fill="none" stroke="midnightblue" d="M312.03,-161.39C320.17,-153.32 329.38,-142.89 335.5,-132 345.86,-113.55 351.05,-88.91 353.21,-75.91"/>
<polygon fill="midnightblue" stroke="midnightblue" points="309.54,-158.93 304.69,-168.35 314.35,-164.01 309.54,-158.93"/>
</g>
<!-- Node8 -->
<g id="node8" class="node">
<title>Node8</title>
<g id="a_node8"><a xlink:href="FileLogger_8hpp.html" target="_top" xlink:title=" ">
<polygon fill="white" stroke="black" points="382,-112.5 382,-131.5 541,-131.5 541,-112.5 382,-112.5"/>
<text text-anchor="middle" x="461.5" y="-119.5" font-family="Helvetica,sans-Serif" font-size="10.00">include/logger/FileLogger.hpp</text>
</a>
</g>
</g>
<!-- Node1&#45;&gt;Node8 -->
<g id="edge7" class="edge">
<title>Node1&#45;&gt;Node8</title>
<path fill="none" stroke="midnightblue" d="M330.67,-165.3C362.14,-155.13 406.99,-140.62 435.16,-131.52"/>
<polygon fill="midnightblue" stroke="midnightblue" points="329.4,-162.04 320.96,-168.44 331.55,-168.7 329.4,-162.04"/>
</g>
<!-- Node4 -->
<g id="node4" class="node">
<title>Node4</title>
<g id="a_node4"><a xlink:href="ConsoleLogger_8cpp.html" target="_top" xlink:title=" ">
<polygon fill="white" stroke="black" points="85,-56.5 85,-75.5 244,-75.5 244,-56.5 85,-56.5"/>
<text text-anchor="middle" x="164.5" y="-63.5" font-family="Helvetica,sans-Serif" font-size="10.00">src/logger/ConsoleLogger.cpp</text>
</a>
</g>
</g>
<!-- Node3&#45;&gt;Node4 -->
<g id="edge3" class="edge">
<title>Node3&#45;&gt;Node4</title>
<path fill="none" stroke="midnightblue" d="M215.91,-106.1C203.13,-96.38 186.89,-84.03 176.11,-75.83"/>
<polygon fill="midnightblue" stroke="midnightblue" points="214.01,-109.06 224.09,-112.32 218.25,-103.48 214.01,-109.06"/>
</g>
<!-- Node3&#45;&gt;Node5 -->
<g id="edge4" class="edge">
<title>Node3&#45;&gt;Node5</title>
<path fill="none" stroke="midnightblue" d="M263.64,-108.23C285.9,-98.13 316.36,-84.31 335.73,-75.52"/>
<polygon fill="midnightblue" stroke="midnightblue" points="262.02,-105.12 254.36,-112.44 264.91,-111.5 262.02,-105.12"/>
</g>
<!-- Node6 -->
<g id="node6" class="node">
<title>Node6</title>
<g id="a_node6"><a xlink:href="LoggerManager_8cpp.html" target="_top" xlink:title=" ">
<polygon fill="white" stroke="black" points="204,-0.5 204,-19.5 367,-19.5 367,-0.5 204,-0.5"/>
<text text-anchor="middle" x="285.5" y="-7.5" font-family="Helvetica,sans-Serif" font-size="10.00">src/logger/LoggerManager.cpp</text>
</a>
</g>
</g>
<!-- Node5&#45;&gt;Node6 -->
<g id="edge5" class="edge">
<title>Node5&#45;&gt;Node6</title>
<path fill="none" stroke="midnightblue" d="M335.46,-50.1C323.04,-40.38 307.26,-28.03 296.79,-19.83"/>
<polygon fill="midnightblue" stroke="midnightblue" points="333.38,-52.92 343.41,-56.32 337.7,-47.4 333.38,-52.92"/>
</g>
<!-- Node7 -->
<g id="node7" class="node">
<title>Node7</title>
<g id="a_node7"><a xlink:href="main_8cpp.html" target="_top" xlink:title=" ">
<polygon fill="white" stroke="black" points="385,-0.5 385,-19.5 464,-19.5 464,-0.5 385,-0.5"/>
<text text-anchor="middle" x="424.5" y="-7.5" font-family="Helvetica,sans-Serif" font-size="10.00">src/main.cpp</text>
</a>
</g>
</g>
<!-- Node5&#45;&gt;Node7 -->
<g id="edge6" class="edge">
<title>Node5&#45;&gt;Node7</title>
<path fill="none" stroke="midnightblue" d="M373.81,-50.1C386.41,-40.38 402.43,-28.03 413.05,-19.83"/>
<polygon fill="midnightblue" stroke="midnightblue" points="371.53,-47.44 365.75,-56.32 375.8,-52.99 371.53,-47.44"/>
</g>
<!-- Node8&#45;&gt;Node5 -->
<g id="edge9" class="edge">
<title>Node8&#45;&gt;Node5</title>
<path fill="none" stroke="midnightblue" d="M435.2,-107.73C415.39,-97.73 388.79,-84.31 371.65,-75.65"/>
<polygon fill="midnightblue" stroke="midnightblue" points="433.8,-110.94 444.31,-112.32 436.96,-104.69 433.8,-110.94"/>
</g>
<!-- Node9 -->
<g id="node9" class="node">
<title>Node9</title>
<g id="a_node9"><a xlink:href="FileLogger_8cpp.html" target="_top" xlink:title=" ">
<polygon fill="white" stroke="black" points="465,-56.5 465,-75.5 602,-75.5 602,-56.5 465,-56.5"/>
<text text-anchor="middle" x="533.5" y="-63.5" font-family="Helvetica,sans-Serif" font-size="10.00">src/logger/FileLogger.cpp</text>
</a>
</g>
</g>
<!-- Node8&#45;&gt;Node9 -->
<g id="edge8" class="edge">
<title>Node8&#45;&gt;Node9</title>
<path fill="none" stroke="midnightblue" d="M481.37,-106.1C494.32,-96.38 510.8,-84.03 521.72,-75.83"/>
<polygon fill="midnightblue" stroke="midnightblue" points="478.97,-103.52 473.07,-112.32 483.17,-109.12 478.97,-103.52"/>
</g>
</g>
</svg>
