<?xml version="1.0" encoding="UTF-8" standalone="no"?>
<!DOCTYPE svg PUBLIC "-//W3C//DTD SVG 1.1//EN"
 "http://www.w3.org/Graphics/SVG/1.1/DTD/svg11.dtd">
<!-- Generated by graphviz version 2.43.0 (0)
 -->
<!-- Title: logger::ALogger::getLogPrefix Pages: 1 -->
<svg width="350pt" height="66pt"
 viewBox="0.00 0.00 350.00 66.00" xmlns="http://www.w3.org/2000/svg" xmlns:xlink="http://www.w3.org/1999/xlink">
<g id="graph0" class="graph" transform="scale(1 1) rotate(0) translate(4 62)">
<title>logger::ALogger::getLogPrefix</title>
<polygon fill="white" stroke="transparent" points="-4,4 -4,-62 346,-62 346,4 -4,4"/>
<!-- Node1 -->
<g id="node1" class="node">
<title>Node1</title>
<g id="a_node1"><a xlink:title="Creates Prefix for Logs.">
<polygon fill="#bfbfbf" stroke="black" points="182,-19.5 182,-38.5 342,-38.5 342,-19.5 182,-19.5"/>
<text text-anchor="middle" x="262" y="-26.5" font-family="Helvetica,sans-Serif" font-size="10.00">logger::ALogger::getLogPrefix</text>
</a>
</g>
</g>
<!-- Node2 -->
<g id="node2" class="node">
<title>Node2</title>
<g id="a_node2"><a xlink:href="classlogger_1_1ConsoleLogger.html#ac85920c5cdc2b6560a52e32d6757936c" target="_top" xlink:title="Logs a message to the console.">
<polygon fill="white" stroke="black" points="0,-38.5 0,-57.5 146,-57.5 146,-38.5 0,-38.5"/>
<text text-anchor="middle" x="73" y="-45.5" font-family="Helvetica,sans-Serif" font-size="10.00">logger::ConsoleLogger::log</text>
</a>
</g>
</g>
<!-- Node1&#45;&gt;Node2 -->
<g id="edge1" class="edge">
<title>Node1&#45;&gt;Node2</title>
<path fill="none" stroke="midnightblue" d="M171.9,-38.05C163.29,-38.93 154.63,-39.81 146.21,-40.66"/>
<polygon fill="midnightblue" stroke="midnightblue" points="172.37,-41.52 181.97,-37.03 171.66,-34.56 172.37,-41.52"/>
</g>
<!-- Node3 -->
<g id="node3" class="node">
<title>Node3</title>
<g id="a_node3"><a xlink:href="classlogger_1_1FileLogger.html#a1e96849853bcbdde388872138751606b" target="_top" xlink:title="Logs a message to the file.">
<polygon fill="white" stroke="black" points="10.5,-0.5 10.5,-19.5 135.5,-19.5 135.5,-0.5 10.5,-0.5"/>
<text text-anchor="middle" x="73" y="-7.5" font-family="Helvetica,sans-Serif" font-size="10.00">logger::FileLogger::log</text>
</a>
</g>
</g>
<!-- Node1&#45;&gt;Node3 -->
<g id="edge2" class="edge">
<title>Node1&#45;&gt;Node3</title>
<path fill="none" stroke="midnightblue" d="M171.77,-19.93C159.58,-18.7 147.29,-17.45 135.74,-16.27"/>
<polygon fill="midnightblue" stroke="midnightblue" points="171.66,-23.44 181.97,-20.97 172.37,-16.48 171.66,-23.44"/>
</g>
</g>
</svg>
