<?xml version="1.0" encoding="UTF-8" standalone="no"?>
<!DOCTYPE svg PUBLIC "-//W3C//DTD SVG 1.1//EN"
 "http://www.w3.org/Graphics/SVG/1.1/DTD/svg11.dtd">
<!-- Generated by graphviz version 2.43.0 (0)
 -->
<!-- Title: logger::ALogger::operator= Pages: 1 -->
<svg width="318pt" height="88pt"
 viewBox="0.00 0.00 318.00 88.00" xmlns="http://www.w3.org/2000/svg" xmlns:xlink="http://www.w3.org/1999/xlink">
<g id="graph0" class="graph" transform="scale(1 1) rotate(0) translate(4 84)">
<title>logger::ALogger::operator=</title>
<polygon fill="white" stroke="transparent" points="-4,4 -4,-84 314,-84 314,4 -4,4"/>
<!-- Node1 -->
<g id="node1" class="node">
<title>Node1</title>
<g id="a_node1"><a xlink:title="Copy assignment operator.">
<polygon fill="#bfbfbf" stroke="black" points="161,-30 161,-49 310,-49 310,-30 161,-30"/>
<text text-anchor="middle" x="235.5" y="-37" font-family="Helvetica,sans-Serif" font-size="10.00">logger::ALogger::operator=</text>
</a>
</g>
</g>
<!-- Node2 -->
<g id="node2" class="node">
<title>Node2</title>
<g id="a_node2"><a xlink:href="classlogger_1_1ConsoleLogger.html#ab398d355ce729292792e3f79c7a3a4c4" target="_top" xlink:title="Copy assignment operator.">
<polygon fill="white" stroke="black" points="0,-49.5 0,-79.5 125,-79.5 125,-49.5 0,-49.5"/>
<text text-anchor="start" x="8" y="-67.5" font-family="Helvetica,sans-Serif" font-size="10.00">logger::ConsoleLogger</text>
<text text-anchor="middle" x="62.5" y="-56.5" font-family="Helvetica,sans-Serif" font-size="10.00">::operator=</text>
</a>
</g>
</g>
<!-- Node1&#45;&gt;Node2 -->
<g id="edge1" class="edge">
<title>Node1&#45;&gt;Node2</title>
<path fill="none" stroke="midnightblue" d="M159.38,-50.48C147.92,-52.16 136.2,-53.87 125.07,-55.5"/>
<polygon fill="midnightblue" stroke="midnightblue" points="159.98,-53.93 169.36,-49.02 158.96,-47.01 159.98,-53.93"/>
</g>
<!-- Node3 -->
<g id="node3" class="node">
<title>Node3</title>
<g id="a_node3"><a xlink:href="classlogger_1_1FileLogger.html#a4b3b06e56ae78eaa36b646154caa046f" target="_top" xlink:title="Copy assignment operator.">
<polygon fill="white" stroke="black" points="10.5,-0.5 10.5,-30.5 114.5,-30.5 114.5,-0.5 10.5,-0.5"/>
<text text-anchor="start" x="18.5" y="-18.5" font-family="Helvetica,sans-Serif" font-size="10.00">logger::FileLogger</text>
<text text-anchor="middle" x="62.5" y="-7.5" font-family="Helvetica,sans-Serif" font-size="10.00">::operator=</text>
</a>
</g>
</g>
<!-- Node1&#45;&gt;Node3 -->
<g id="edge2" class="edge">
<title>Node1&#45;&gt;Node3</title>
<path fill="none" stroke="midnightblue" d="M156.24,-28.52C142.15,-26.54 127.81,-24.53 114.74,-22.69"/>
<polygon fill="midnightblue" stroke="midnightblue" points="156.04,-32.02 166.42,-29.95 157.01,-25.09 156.04,-32.02"/>
</g>
</g>
</svg>
