<?xml version="1.0" encoding="UTF-8" standalone="no"?>
<!DOCTYPE svg PUBLIC "-//W3C//DTD SVG 1.1//EN"
 "http://www.w3.org/Graphics/SVG/1.1/DTD/svg11.dtd">
<!-- Generated by graphviz version 2.43.0 (0)
 -->
<!-- Title: logger::ConsoleLogger::log Pages: 1 -->
<svg width="544pt" height="88pt"
 viewBox="0.00 0.00 544.00 88.00" xmlns="http://www.w3.org/2000/svg" xmlns:xlink="http://www.w3.org/1999/xlink">
<g id="graph0" class="graph" transform="scale(1 1) rotate(0) translate(4 84)">
<title>logger::ConsoleLogger::log</title>
<polygon fill="white" stroke="transparent" points="-4,4 -4,-84 540,-84 540,4 -4,4"/>
<!-- Node1 -->
<g id="node1" class="node">
<title>Node1</title>
<g id="a_node1"><a xlink:title="Logs a message to the console.">
<polygon fill="#bfbfbf" stroke="black" points="0,-30 0,-49 146,-49 146,-30 0,-30"/>
<text text-anchor="middle" x="73" y="-37" font-family="Helvetica,sans-Serif" font-size="10.00">logger::ConsoleLogger::log</text>
</a>
</g>
</g>
<!-- Node2 -->
<g id="node2" class="node">
<title>Node2</title>
<g id="a_node2"><a xlink:href="classlogger_1_1ALogger.html#a993700fc347b0dc071283b42df5c8ad4" target="_top" xlink:title="Creates Prefix for Logs.">
<polygon fill="white" stroke="black" points="182,-30 182,-49 342,-49 342,-30 182,-30"/>
<text text-anchor="middle" x="262" y="-37" font-family="Helvetica,sans-Serif" font-size="10.00">logger::ALogger::getLogPrefix</text>
</a>
</g>
</g>
<!-- Node1&#45;&gt;Node2 -->
<g id="edge1" class="edge">
<title>Node1&#45;&gt;Node2</title>
<path fill="none" stroke="midnightblue" d="M146.03,-39.5C154.46,-39.5 163.14,-39.5 171.77,-39.5"/>
<polygon fill="midnightblue" stroke="midnightblue" points="171.86,-43 181.86,-39.5 171.86,-36 171.86,-43"/>
</g>
<!-- Node3 -->
<g id="node3" class="node">
<title>Node3</title>
<g id="a_node3"><a xlink:href="classlogger_1_1ALogger.html#aeec7dc86db5a5df42d02b494e24802cf" target="_top" xlink:title="Converts a log level to its string representation.">
<polygon fill="white" stroke="black" points="378,-49.5 378,-79.5 536,-79.5 536,-49.5 378,-49.5"/>
<text text-anchor="start" x="386" y="-67.5" font-family="Helvetica,sans-Serif" font-size="10.00">logger::ALogger::getLogLevel</text>
<text text-anchor="middle" x="457" y="-56.5" font-family="Helvetica,sans-Serif" font-size="10.00">AsString</text>
</a>
</g>
</g>
<!-- Node2&#45;&gt;Node3 -->
<g id="edge2" class="edge">
<title>Node2&#45;&gt;Node3</title>
<path fill="none" stroke="midnightblue" d="M336.52,-49.02C346.77,-50.35 357.39,-51.73 367.87,-53.08"/>
<polygon fill="midnightblue" stroke="midnightblue" points="367.51,-56.57 377.87,-54.38 368.4,-49.62 367.51,-56.57"/>
</g>
<!-- Node4 -->
<g id="node4" class="node">
<title>Node4</title>
<g id="a_node4"><a xlink:href="classlogger_1_1ALogger.html#a0b5d4d94c2eac993058f212848cab04a" target="_top" xlink:title="Retrieves the current timestamp in a formatted string.">
<polygon fill="white" stroke="black" points="387,-0.5 387,-30.5 527,-30.5 527,-0.5 387,-0.5"/>
<text text-anchor="start" x="395" y="-18.5" font-family="Helvetica,sans-Serif" font-size="10.00">logger::ALogger::getTime</text>
<text text-anchor="middle" x="457" y="-7.5" font-family="Helvetica,sans-Serif" font-size="10.00">Stamp</text>
</a>
</g>
</g>
<!-- Node2&#45;&gt;Node4 -->
<g id="edge3" class="edge">
<title>Node2&#45;&gt;Node4</title>
<path fill="none" stroke="midnightblue" d="M339.56,-29.98C351.72,-28.47 364.34,-26.9 376.57,-25.38"/>
<polygon fill="midnightblue" stroke="midnightblue" points="377.25,-28.82 386.74,-24.11 376.38,-21.87 377.25,-28.82"/>
</g>
</g>
</svg>
