<?xml version="1.0" encoding="UTF-8" standalone="no"?>
<!DOCTYPE svg PUBLIC "-//W3C//DTD SVG 1.1//EN"
 "http://www.w3.org/Graphics/SVG/1.1/DTD/svg11.dtd">
<!-- Generated by graphviz version 2.43.0 (0)
 -->
<!-- Title: logger::ALogger::getLogPrefix Pages: 1 -->
<svg width="362pt" height="88pt"
 viewBox="0.00 0.00 362.00 88.00" xmlns="http://www.w3.org/2000/svg" xmlns:xlink="http://www.w3.org/1999/xlink">
<g id="graph0" class="graph" transform="scale(1 1) rotate(0) translate(4 84)">
<title>logger::ALogger::getLogPrefix</title>
<polygon fill="white" stroke="transparent" points="-4,4 -4,-84 358,-84 358,4 -4,4"/>
<!-- Node1 -->
<g id="node1" class="node">
<title>Node1</title>
<g id="a_node1"><a xlink:title="Creates Prefix for Logs.">
<polygon fill="#bfbfbf" stroke="black" points="0,-30 0,-49 160,-49 160,-30 0,-30"/>
<text text-anchor="middle" x="80" y="-37" font-family="Helvetica,sans-Serif" font-size="10.00">logger::ALogger::getLogPrefix</text>
</a>
</g>
</g>
<!-- Node2 -->
<g id="node2" class="node">
<title>Node2</title>
<g id="a_node2"><a xlink:href="classlogger_1_1ALogger.html#aeec7dc86db5a5df42d02b494e24802cf" target="_top" xlink:title="Converts a log level to its string representation.">
<polygon fill="white" stroke="black" points="196,-49.5 196,-79.5 354,-79.5 354,-49.5 196,-49.5"/>
<text text-anchor="start" x="204" y="-67.5" font-family="Helvetica,sans-Serif" font-size="10.00">logger::ALogger::getLogLevel</text>
<text text-anchor="middle" x="275" y="-56.5" font-family="Helvetica,sans-Serif" font-size="10.00">AsString</text>
</a>
</g>
</g>
<!-- Node1&#45;&gt;Node2 -->
<g id="edge1" class="edge">
<title>Node1&#45;&gt;Node2</title>
<path fill="none" stroke="midnightblue" d="M154.52,-49.02C164.77,-50.35 175.39,-51.73 185.87,-53.08"/>
<polygon fill="midnightblue" stroke="midnightblue" points="185.51,-56.57 195.87,-54.38 186.4,-49.62 185.51,-56.57"/>
</g>
<!-- Node3 -->
<g id="node3" class="node">
<title>Node3</title>
<g id="a_node3"><a xlink:href="classlogger_1_1ALogger.html#a0b5d4d94c2eac993058f212848cab04a" target="_top" xlink:title="Retrieves the current timestamp in a formatted string.">
<polygon fill="white" stroke="black" points="205,-0.5 205,-30.5 345,-30.5 345,-0.5 205,-0.5"/>
<text text-anchor="start" x="213" y="-18.5" font-family="Helvetica,sans-Serif" font-size="10.00">logger::ALogger::getTime</text>
<text text-anchor="middle" x="275" y="-7.5" font-family="Helvetica,sans-Serif" font-size="10.00">Stamp</text>
</a>
</g>
</g>
<!-- Node1&#45;&gt;Node3 -->
<g id="edge2" class="edge">
<title>Node1&#45;&gt;Node3</title>
<path fill="none" stroke="midnightblue" d="M157.56,-29.98C169.72,-28.47 182.34,-26.9 194.57,-25.38"/>
<polygon fill="midnightblue" stroke="midnightblue" points="195.25,-28.82 204.74,-24.11 194.38,-21.87 195.25,-28.82"/>
</g>
</g>
</svg>
