<?xml version="1.0" encoding="UTF-8" standalone="no"?>
<!DOCTYPE svg PUBLIC "-//W3C//DTD SVG 1.1//EN"
 "http://www.w3.org/Graphics/SVG/1.1/DTD/svg11.dtd">
<!-- Generated by graphviz version 2.43.0 (0)
 -->
<!-- Title: logger::ALogger Pages: 1 -->
<svg width="256pt" height="84pt"
 viewBox="0.00 0.00 255.50 84.00" xmlns="http://www.w3.org/2000/svg" xmlns:xlink="http://www.w3.org/1999/xlink">
<g id="graph0" class="graph" transform="scale(1 1) rotate(0) translate(4 80)">
<title>logger::ALogger</title>
<polygon fill="white" stroke="transparent" points="-4,4 -4,-80 251.5,-80 251.5,4 -4,4"/>
<!-- Node1 -->
<g id="node1" class="node">
<title>Node1</title>
<g id="a_node1"><a xlink:title="Abstract base class for logging functionality.">
<polygon fill="#bfbfbf" stroke="black" points="82,-56.5 82,-75.5 175,-75.5 175,-56.5 82,-56.5"/>
<text text-anchor="middle" x="128.5" y="-63.5" font-family="Helvetica,sans-Serif" font-size="10.00">logger::ALogger</text>
</a>
</g>
</g>
<!-- Node2 -->
<g id="node2" class="node">
<title>Node2</title>
<g id="a_node2"><a xlink:href="classlogger_1_1ConsoleLogger.html" target="_top" xlink:title="Logs messages to the console.">
<polygon fill="white" stroke="black" points="0,-0.5 0,-19.5 125,-19.5 125,-0.5 0,-0.5"/>
<text text-anchor="middle" x="62.5" y="-7.5" font-family="Helvetica,sans-Serif" font-size="10.00">logger::ConsoleLogger</text>
</a>
</g>
</g>
<!-- Node1&#45;&gt;Node2 -->
<g id="edge1" class="edge">
<title>Node1&#45;&gt;Node2</title>
<path fill="none" stroke="midnightblue" d="M109.95,-49.82C98.12,-40.15 83.21,-27.95 73.3,-19.83"/>
<polygon fill="midnightblue" stroke="midnightblue" points="107.94,-52.7 117.9,-56.32 112.37,-47.28 107.94,-52.7"/>
</g>
<!-- Node3 -->
<g id="node3" class="node">
<title>Node3</title>
<g id="a_node3"><a xlink:href="classlogger_1_1FileLogger.html" target="_top" xlink:title="Logs messages to a specified file.">
<polygon fill="white" stroke="black" points="143.5,-0.5 143.5,-19.5 247.5,-19.5 247.5,-0.5 143.5,-0.5"/>
<text text-anchor="middle" x="195.5" y="-7.5" font-family="Helvetica,sans-Serif" font-size="10.00">logger::FileLogger</text>
</a>
</g>
</g>
<!-- Node1&#45;&gt;Node3 -->
<g id="edge2" class="edge">
<title>Node1&#45;&gt;Node3</title>
<path fill="none" stroke="midnightblue" d="M147.33,-49.82C159.34,-40.15 174.47,-27.95 184.54,-19.83"/>
<polygon fill="midnightblue" stroke="midnightblue" points="144.85,-47.32 139.26,-56.32 149.25,-52.77 144.85,-47.32"/>
</g>
</g>
</svg>
