<?xml version="1.0" encoding="UTF-8" standalone="no"?>
<!DOCTYPE svg PUBLIC "-//W3C//DTD SVG 1.1//EN"
 "http://www.w3.org/Graphics/SVG/1.1/DTD/svg11.dtd">
<!-- Generated by graphviz version 2.43.0 (0)
 -->
<!-- Title: logger::FileLogger::log Pages: 1 -->
<svg width="523pt" height="88pt"
 viewBox="0.00 0.00 523.00 88.00" xmlns="http://www.w3.org/2000/svg" xmlns:xlink="http://www.w3.org/1999/xlink">
<g id="graph0" class="graph" transform="scale(1 1) rotate(0) translate(4 84)">
<title>logger::FileLogger::log</title>
<polygon fill="white" stroke="transparent" points="-4,4 -4,-84 519,-84 519,4 -4,4"/>
<!-- Node1 -->
<g id="node1" class="node">
<title>Node1</title>
<g id="a_node1"><a xlink:title="Logs a message to the file.">
<polygon fill="#bfbfbf" stroke="black" points="0,-30 0,-49 125,-49 125,-30 0,-30"/>
<text text-anchor="middle" x="62.5" y="-37" font-family="Helvetica,sans-Serif" font-size="10.00">logger::FileLogger::log</text>
</a>
</g>
</g>
<!-- Node2 -->
<g id="node2" class="node">
<title>Node2</title>
<g id="a_node2"><a xlink:href="classlogger_1_1ALogger.html#a993700fc347b0dc071283b42df5c8ad4" target="_top" xlink:title="Creates Prefix for Logs.">
<polygon fill="white" stroke="black" points="161,-30 161,-49 321,-49 321,-30 161,-30"/>
<text text-anchor="middle" x="241" y="-37" font-family="Helvetica,sans-Serif" font-size="10.00">logger::ALogger::getLogPrefix</text>
</a>
</g>
</g>
<!-- Node1&#45;&gt;Node2 -->
<g id="edge1" class="edge">
<title>Node1&#45;&gt;Node2</title>
<path fill="none" stroke="midnightblue" d="M125.23,-39.5C133.52,-39.5 142.15,-39.5 150.8,-39.5"/>
<polygon fill="midnightblue" stroke="midnightblue" points="150.93,-43 160.93,-39.5 150.93,-36 150.93,-43"/>
</g>
<!-- Node3 -->
<g id="node3" class="node">
<title>Node3</title>
<g id="a_node3"><a xlink:href="classlogger_1_1ALogger.html#aeec7dc86db5a5df42d02b494e24802cf" target="_top" xlink:title="Converts a log level to its string representation.">
<polygon fill="white" stroke="black" points="357,-49.5 357,-79.5 515,-79.5 515,-49.5 357,-49.5"/>
<text text-anchor="start" x="365" y="-67.5" font-family="Helvetica,sans-Serif" font-size="10.00">logger::ALogger::getLogLevel</text>
<text text-anchor="middle" x="436" y="-56.5" font-family="Helvetica,sans-Serif" font-size="10.00">AsString</text>
</a>
</g>
</g>
<!-- Node2&#45;&gt;Node3 -->
<g id="edge2" class="edge">
<title>Node2&#45;&gt;Node3</title>
<path fill="none" stroke="midnightblue" d="M315.52,-49.02C325.77,-50.35 336.39,-51.73 346.87,-53.08"/>
<polygon fill="midnightblue" stroke="midnightblue" points="346.51,-56.57 356.87,-54.38 347.4,-49.62 346.51,-56.57"/>
</g>
<!-- Node4 -->
<g id="node4" class="node">
<title>Node4</title>
<g id="a_node4"><a xlink:href="classlogger_1_1ALogger.html#a0b5d4d94c2eac993058f212848cab04a" target="_top" xlink:title="Retrieves the current timestamp in a formatted string.">
<polygon fill="white" stroke="black" points="366,-0.5 366,-30.5 506,-30.5 506,-0.5 366,-0.5"/>
<text text-anchor="start" x="374" y="-18.5" font-family="Helvetica,sans-Serif" font-size="10.00">logger::ALogger::getTime</text>
<text text-anchor="middle" x="436" y="-7.5" font-family="Helvetica,sans-Serif" font-size="10.00">Stamp</text>
</a>
</g>
</g>
<!-- Node2&#45;&gt;Node4 -->
<g id="edge3" class="edge">
<title>Node2&#45;&gt;Node4</title>
<path fill="none" stroke="midnightblue" d="M318.56,-29.98C330.72,-28.47 343.34,-26.9 355.57,-25.38"/>
<polygon fill="midnightblue" stroke="midnightblue" points="356.25,-28.82 365.74,-24.11 355.38,-21.87 356.25,-28.82"/>
</g>
</g>
</svg>
