<?xml version="1.0" encoding="UTF-8" standalone="no"?>
<!DOCTYPE svg PUBLIC "-//W3C//DTD SVG 1.1//EN"
 "http://www.w3.org/Graphics/SVG/1.1/DTD/svg11.dtd">
<!-- Generated by graphviz version 2.43.0 (0)
 -->
<!-- Title: include/logger/ConsoleLogger.hpp Pages: 1 -->
<svg width="386pt" height="140pt"
 viewBox="0.00 0.00 386.00 140.00" xmlns="http://www.w3.org/2000/svg" xmlns:xlink="http://www.w3.org/1999/xlink">
<g id="graph0" class="graph" transform="scale(1 1) rotate(0) translate(4 136)">
<title>include/logger/ConsoleLogger.hpp</title>
<polygon fill="white" stroke="transparent" points="-4,4 -4,-136 382,-136 382,4 -4,4"/>
<!-- Node1 -->
<g id="node1" class="node">
<title>Node1</title>
<g id="a_node1"><a xlink:title=" ">
<polygon fill="#bfbfbf" stroke="black" points="84,-112.5 84,-131.5 265,-131.5 265,-112.5 84,-112.5"/>
<text text-anchor="middle" x="174.5" y="-119.5" font-family="Helvetica,sans-Serif" font-size="10.00">include/logger/ConsoleLogger.hpp</text>
</a>
</g>
</g>
<!-- Node2 -->
<g id="node2" class="node">
<title>Node2</title>
<g id="a_node2"><a xlink:href="ConsoleLogger_8cpp.html" target="_top" xlink:title=" ">
<polygon fill="white" stroke="black" points="0,-56.5 0,-75.5 159,-75.5 159,-56.5 0,-56.5"/>
<text text-anchor="middle" x="79.5" y="-63.5" font-family="Helvetica,sans-Serif" font-size="10.00">src/logger/ConsoleLogger.cpp</text>
</a>
</g>
</g>
<!-- Node1&#45;&gt;Node2 -->
<g id="edge1" class="edge">
<title>Node1&#45;&gt;Node2</title>
<path fill="none" stroke="midnightblue" d="M150.18,-107.18C132.7,-97.24 109.67,-84.15 94.73,-75.65"/>
<polygon fill="midnightblue" stroke="midnightblue" points="148.81,-110.43 159.24,-112.32 152.27,-104.34 148.81,-110.43"/>
</g>
<!-- Node3 -->
<g id="node3" class="node">
<title>Node3</title>
<g id="a_node3"><a xlink:href="LoggerManager_8hpp.html" target="_top" xlink:title=" ">
<polygon fill="white" stroke="black" points="177,-56.5 177,-75.5 362,-75.5 362,-56.5 177,-56.5"/>
<text text-anchor="middle" x="269.5" y="-63.5" font-family="Helvetica,sans-Serif" font-size="10.00">include/logger/LoggerManager.hpp</text>
</a>
</g>
</g>
<!-- Node1&#45;&gt;Node3 -->
<g id="edge2" class="edge">
<title>Node1&#45;&gt;Node3</title>
<path fill="none" stroke="midnightblue" d="M198.82,-107.18C216.3,-97.24 239.33,-84.15 254.27,-75.65"/>
<polygon fill="midnightblue" stroke="midnightblue" points="196.73,-104.34 189.76,-112.32 200.19,-110.43 196.73,-104.34"/>
</g>
<!-- Node4 -->
<g id="node4" class="node">
<title>Node4</title>
<g id="a_node4"><a xlink:href="LoggerManager_8cpp.html" target="_top" xlink:title=" ">
<polygon fill="white" stroke="black" points="118,-0.5 118,-19.5 281,-19.5 281,-0.5 118,-0.5"/>
<text text-anchor="middle" x="199.5" y="-7.5" font-family="Helvetica,sans-Serif" font-size="10.00">src/logger/LoggerManager.cpp</text>
</a>
</g>
</g>
<!-- Node3&#45;&gt;Node4 -->
<g id="edge3" class="edge">
<title>Node3&#45;&gt;Node4</title>
<path fill="none" stroke="midnightblue" d="M250.19,-50.1C237.59,-40.38 221.57,-28.03 210.95,-19.83"/>
<polygon fill="midnightblue" stroke="midnightblue" points="248.2,-52.99 258.25,-56.32 252.47,-47.44 248.2,-52.99"/>
</g>
<!-- Node5 -->
<g id="node5" class="node">
<title>Node5</title>
<g id="a_node5"><a xlink:href="main_8cpp.html" target="_top" xlink:title=" ">
<polygon fill="white" stroke="black" points="299,-0.5 299,-19.5 378,-19.5 378,-0.5 299,-0.5"/>
<text text-anchor="middle" x="338.5" y="-7.5" font-family="Helvetica,sans-Serif" font-size="10.00">src/main.cpp</text>
</a>
</g>
</g>
<!-- Node3&#45;&gt;Node5 -->
<g id="edge4" class="edge">
<title>Node3&#45;&gt;Node5</title>
<path fill="none" stroke="midnightblue" d="M288.54,-50.1C300.96,-40.38 316.74,-28.03 327.21,-19.83"/>
<polygon fill="midnightblue" stroke="midnightblue" points="286.3,-47.4 280.59,-56.32 290.62,-52.92 286.3,-47.4"/>
</g>
</g>
</svg>
