<?xml version="1.0" encoding="UTF-8" standalone="no"?>
<!DOCTYPE svg PUBLIC "-//W3C//DTD SVG 1.1//EN"
 "http://www.w3.org/Graphics/SVG/1.1/DTD/svg11.dtd">
<!-- Generated by graphviz version 2.43.0 (0)
 -->
<!-- Title: Graphical Class Hierarchy Pages: 1 -->
<svg width="262pt" height="66pt"
 viewBox="0.00 0.00 262.00 66.00" xmlns="http://www.w3.org/2000/svg" xmlns:xlink="http://www.w3.org/1999/xlink">
<g id="graph0" class="graph" transform="scale(1 1) rotate(0) translate(4 62)">
<title>Graphical Class Hierarchy</title>
<polygon fill="white" stroke="transparent" points="-4,4 -4,-62 258,-62 258,4 -4,4"/>
<!-- Node0 -->
<g id="node1" class="node">
<title>Node0</title>
<g id="a_node1"><a xlink:href="classlogger_1_1ALogger.html" target="_top" xlink:title="Abstract base class for logging functionality.">
<polygon fill="white" stroke="black" points="0,-19.5 0,-38.5 93,-38.5 93,-19.5 0,-19.5"/>
<text text-anchor="middle" x="46.5" y="-26.5" font-family="Helvetica,sans-Serif" font-size="10.00">logger::ALogger</text>
</a>
</g>
</g>
<!-- Node1 -->
<g id="node2" class="node">
<title>Node1</title>
<g id="a_node2"><a xlink:href="classlogger_1_1ConsoleLogger.html" target="_top" xlink:title="Logs messages to the console.">
<polygon fill="white" stroke="black" points="129,-38.5 129,-57.5 254,-57.5 254,-38.5 129,-38.5"/>
<text text-anchor="middle" x="191.5" y="-45.5" font-family="Helvetica,sans-Serif" font-size="10.00">logger::ConsoleLogger</text>
</a>
</g>
</g>
<!-- Node0&#45;&gt;Node1 -->
<g id="edge1" class="edge">
<title>Node0&#45;&gt;Node1</title>
<path fill="none" stroke="midnightblue" d="M103.21,-36.4C111.62,-37.52 120.34,-38.68 128.86,-39.81"/>
<polygon fill="midnightblue" stroke="midnightblue" points="103.51,-32.91 93.14,-35.06 102.59,-39.85 103.51,-32.91"/>
</g>
<!-- Node2 -->
<g id="node3" class="node">
<title>Node2</title>
<g id="a_node3"><a xlink:href="classlogger_1_1FileLogger.html" target="_top" xlink:title="Logs messages to a specified file.">
<polygon fill="white" stroke="black" points="139.5,-0.5 139.5,-19.5 243.5,-19.5 243.5,-0.5 139.5,-0.5"/>
<text text-anchor="middle" x="191.5" y="-7.5" font-family="Helvetica,sans-Serif" font-size="10.00">logger::FileLogger</text>
</a>
</g>
</g>
<!-- Node0&#45;&gt;Node2 -->
<g id="edge2" class="edge">
<title>Node0&#45;&gt;Node2</title>
<path fill="none" stroke="midnightblue" d="M103.36,-21.58C115.22,-20 127.67,-18.35 139.34,-16.8"/>
<polygon fill="midnightblue" stroke="midnightblue" points="102.59,-18.15 93.14,-22.94 103.51,-25.09 102.59,-18.15"/>
</g>
</g>
</svg>
