<?xml version="1.0" encoding="UTF-8" standalone="no"?>
<!DOCTYPE svg PUBLIC "-//W3C//DTD SVG 1.1//EN"
 "http://www.w3.org/Graphics/SVG/1.1/DTD/svg11.dtd">
<!-- Generated by graphviz version 2.43.0 (0)
 -->
<!-- Title: include/logger/LoggerManager.hpp Pages: 1 -->
<svg width="412pt" height="218pt"
 viewBox="0.00 0.00 412.00 218.00" xmlns="http://www.w3.org/2000/svg" xmlns:xlink="http://www.w3.org/1999/xlink">
<g id="graph0" class="graph" transform="scale(1 1) rotate(0) translate(4 214)">
<title>include/logger/LoggerManager.hpp</title>
<polygon fill="white" stroke="transparent" points="-4,4 -4,-214 408,-214 408,4 -4,4"/>
<!-- Node1 -->
<g id="node1" class="node">
<title>Node1</title>
<g id="a_node1"><a xlink:title=" ">
<polygon fill="#bfbfbf" stroke="black" points="49.5,-190.5 49.5,-209.5 234.5,-209.5 234.5,-190.5 49.5,-190.5"/>
<text text-anchor="middle" x="142" y="-197.5" font-family="Helvetica,sans-Serif" font-size="10.00">include/logger/LoggerManager.hpp</text>
</a>
</g>
</g>
<!-- Node2 -->
<g id="node2" class="node">
<title>Node2</title>
<g id="a_node2"><a xlink:title=" ">
<polygon fill="white" stroke="#bfbfbf" points="0,-129 0,-148 38,-148 38,-129 0,-129"/>
<text text-anchor="middle" x="19" y="-136" font-family="Helvetica,sans-Serif" font-size="10.00">map</text>
</a>
</g>
</g>
<!-- Node1&#45;&gt;Node2 -->
<g id="edge1" class="edge">
<title>Node1&#45;&gt;Node2</title>
<path fill="none" stroke="midnightblue" d="M123.34,-190.4C104.11,-181.48 73.33,-167.05 47,-154 46.16,-153.59 45.31,-153.16 44.46,-152.73"/>
<polygon fill="midnightblue" stroke="midnightblue" points="45.74,-149.46 35.24,-148.03 42.56,-155.69 45.74,-149.46"/>
</g>
<!-- Node3 -->
<g id="node3" class="node">
<title>Node3</title>
<g id="a_node3"><a xlink:title=" ">
<polygon fill="white" stroke="#bfbfbf" points="56,-129 56,-148 114,-148 114,-129 56,-129"/>
<text text-anchor="middle" x="85" y="-136" font-family="Helvetica,sans-Serif" font-size="10.00">memory</text>
</a>
</g>
</g>
<!-- Node1&#45;&gt;Node3 -->
<g id="edge2" class="edge">
<title>Node1&#45;&gt;Node3</title>
<path fill="none" stroke="midnightblue" d="M133.83,-190.48C125.11,-181.37 111.1,-166.74 100.31,-155.48"/>
<polygon fill="midnightblue" stroke="midnightblue" points="102.6,-152.81 93.15,-148.01 97.54,-157.65 102.6,-152.81"/>
</g>
<!-- Node4 -->
<g id="node4" class="node">
<title>Node4</title>
<g id="a_node4"><a xlink:href="ALogger_8hpp.html" target="_top" xlink:title=" ">
<polygon fill="white" stroke="black" points="174,-56.5 174,-86.5 278,-86.5 278,-56.5 174,-56.5"/>
<text text-anchor="start" x="182" y="-74.5" font-family="Helvetica,sans-Serif" font-size="10.00">../../include/logger</text>
<text text-anchor="middle" x="226" y="-63.5" font-family="Helvetica,sans-Serif" font-size="10.00">/ALogger.hpp</text>
</a>
</g>
</g>
<!-- Node1&#45;&gt;Node4 -->
<g id="edge3" class="edge">
<title>Node1&#45;&gt;Node4</title>
<path fill="none" stroke="midnightblue" d="M142.35,-190.3C143.34,-175.37 147.04,-144.42 161,-123 168.83,-110.98 180.52,-100.62 191.84,-92.47"/>
<polygon fill="midnightblue" stroke="midnightblue" points="194.05,-95.19 200.34,-86.67 190.11,-89.41 194.05,-95.19"/>
</g>
<!-- Node9 -->
<g id="node9" class="node">
<title>Node9</title>
<g id="a_node9"><a xlink:href="ConsoleLogger_8hpp.html" target="_top" xlink:title=" ">
<polygon fill="white" stroke="black" points="170,-123.5 170,-153.5 282,-153.5 282,-123.5 170,-123.5"/>
<text text-anchor="start" x="178" y="-141.5" font-family="Helvetica,sans-Serif" font-size="10.00">../../include/logger</text>
<text text-anchor="middle" x="226" y="-130.5" font-family="Helvetica,sans-Serif" font-size="10.00">/ConsoleLogger.hpp</text>
</a>
</g>
</g>
<!-- Node1&#45;&gt;Node9 -->
<g id="edge8" class="edge">
<title>Node1&#45;&gt;Node9</title>
<path fill="none" stroke="midnightblue" d="M154.04,-190.48C165.41,-182.42 182.91,-170.02 197.8,-159.47"/>
<polygon fill="midnightblue" stroke="midnightblue" points="200.07,-162.16 206.2,-153.52 196.02,-156.45 200.07,-162.16"/>
</g>
<!-- Node10 -->
<g id="node10" class="node">
<title>Node10</title>
<g id="a_node10"><a xlink:href="FileLogger_8hpp.html" target="_top" xlink:title=" ">
<polygon fill="white" stroke="black" points="300,-123.5 300,-153.5 404,-153.5 404,-123.5 300,-123.5"/>
<text text-anchor="start" x="308" y="-141.5" font-family="Helvetica,sans-Serif" font-size="10.00">../../include/logger</text>
<text text-anchor="middle" x="352" y="-130.5" font-family="Helvetica,sans-Serif" font-size="10.00">/FileLogger.hpp</text>
</a>
</g>
</g>
<!-- Node1&#45;&gt;Node10 -->
<g id="edge10" class="edge">
<title>Node1&#45;&gt;Node10</title>
<path fill="none" stroke="midnightblue" d="M172.09,-190.48C203.45,-181.59 253.43,-167.43 292.76,-156.29"/>
<polygon fill="midnightblue" stroke="midnightblue" points="293.84,-159.62 302.51,-153.52 291.93,-152.88 293.84,-159.62"/>
</g>
<!-- Node5 -->
<g id="node5" class="node">
<title>Node5</title>
<g id="a_node5"><a xlink:title=" ">
<polygon fill="white" stroke="#bfbfbf" points="96,-0.5 96,-19.5 140,-19.5 140,-0.5 96,-0.5"/>
<text text-anchor="middle" x="118" y="-7.5" font-family="Helvetica,sans-Serif" font-size="10.00">ctime</text>
</a>
</g>
</g>
<!-- Node4&#45;&gt;Node5 -->
<g id="edge4" class="edge">
<title>Node4&#45;&gt;Node5</title>
<path fill="none" stroke="midnightblue" d="M200.41,-56.4C182.93,-46.77 159.91,-34.09 142.64,-24.58"/>
<polygon fill="midnightblue" stroke="midnightblue" points="144.16,-21.42 133.71,-19.66 140.78,-27.55 144.16,-21.42"/>
</g>
<!-- Node6 -->
<g id="node6" class="node">
<title>Node6</title>
<g id="a_node6"><a xlink:title=" ">
<polygon fill="white" stroke="#bfbfbf" points="158,-0.5 158,-19.5 218,-19.5 218,-0.5 158,-0.5"/>
<text text-anchor="middle" x="188" y="-7.5" font-family="Helvetica,sans-Serif" font-size="10.00">iostream</text>
</a>
</g>
</g>
<!-- Node4&#45;&gt;Node6 -->
<g id="edge5" class="edge">
<title>Node4&#45;&gt;Node6</title>
<path fill="none" stroke="midnightblue" d="M216.99,-56.4C211.59,-47.93 204.67,-37.1 198.95,-28.14"/>
<polygon fill="midnightblue" stroke="midnightblue" points="201.86,-26.2 193.53,-19.66 195.96,-29.97 201.86,-26.2"/>
</g>
<!-- Node7 -->
<g id="node7" class="node">
<title>Node7</title>
<g id="a_node7"><a xlink:title=" ">
<polygon fill="white" stroke="#bfbfbf" points="236,-0.5 236,-19.5 292,-19.5 292,-0.5 236,-0.5"/>
<text text-anchor="middle" x="264" y="-7.5" font-family="Helvetica,sans-Serif" font-size="10.00">sstream</text>
</a>
</g>
</g>
<!-- Node4&#45;&gt;Node7 -->
<g id="edge6" class="edge">
<title>Node4&#45;&gt;Node7</title>
<path fill="none" stroke="midnightblue" d="M235.01,-56.4C240.41,-47.93 247.33,-37.1 253.05,-28.14"/>
<polygon fill="midnightblue" stroke="midnightblue" points="256.04,-29.97 258.47,-19.66 250.14,-26.2 256.04,-29.97"/>
</g>
<!-- Node8 -->
<g id="node8" class="node">
<title>Node8</title>
<g id="a_node8"><a xlink:title=" ">
<polygon fill="white" stroke="#bfbfbf" points="310,-0.5 310,-19.5 354,-19.5 354,-0.5 310,-0.5"/>
<text text-anchor="middle" x="332" y="-7.5" font-family="Helvetica,sans-Serif" font-size="10.00">string</text>
</a>
</g>
</g>
<!-- Node4&#45;&gt;Node8 -->
<g id="edge7" class="edge">
<title>Node4&#45;&gt;Node8</title>
<path fill="none" stroke="midnightblue" d="M251.12,-56.4C268.27,-46.77 290.86,-34.09 307.81,-24.58"/>
<polygon fill="midnightblue" stroke="midnightblue" points="309.57,-27.6 316.58,-19.66 306.14,-21.5 309.57,-27.6"/>
</g>
<!-- Node9&#45;&gt;Node4 -->
<g id="edge9" class="edge">
<title>Node9&#45;&gt;Node4</title>
<path fill="none" stroke="midnightblue" d="M226,-123.4C226,-115.64 226,-105.81 226,-96.86"/>
<polygon fill="midnightblue" stroke="midnightblue" points="229.5,-96.58 226,-86.58 222.5,-96.58 229.5,-96.58"/>
</g>
<!-- Node10&#45;&gt;Node4 -->
<g id="edge12" class="edge">
<title>Node10&#45;&gt;Node4</title>
<path fill="none" stroke="midnightblue" d="M324.66,-123.4C306.41,-113.98 282.22,-101.5 262.36,-91.26"/>
<polygon fill="midnightblue" stroke="midnightblue" points="263.78,-88.05 253.29,-86.58 260.57,-94.27 263.78,-88.05"/>
</g>
<!-- Node11 -->
<g id="node11" class="node">
<title>Node11</title>
<g id="a_node11"><a xlink:title=" ">
<polygon fill="white" stroke="#bfbfbf" points="324.5,-62 324.5,-81 379.5,-81 379.5,-62 324.5,-62"/>
<text text-anchor="middle" x="352" y="-69" font-family="Helvetica,sans-Serif" font-size="10.00">fstream</text>
</a>
</g>
</g>
<!-- Node10&#45;&gt;Node11 -->
<g id="edge11" class="edge">
<title>Node10&#45;&gt;Node11</title>
<path fill="none" stroke="midnightblue" d="M352,-123.4C352,-114.06 352,-101.71 352,-91.52"/>
<polygon fill="midnightblue" stroke="midnightblue" points="355.5,-91.19 352,-81.19 348.5,-91.19 355.5,-91.19"/>
</g>
</g>
</svg>
