<?xml version="1.0" encoding="UTF-8" standalone="no"?>
<!DOCTYPE svg PUBLIC "-//W3C//DTD SVG 1.1//EN"
 "http://www.w3.org/Graphics/SVG/1.1/DTD/svg11.dtd">
<!-- Generated by graphviz version 2.43.0 (0)
 -->
<!-- Title: src/logger/LoggerManager.cpp Pages: 1 -->
<svg width="412pt" height="285pt"
 viewBox="0.00 0.00 412.00 285.00" xmlns="http://www.w3.org/2000/svg" xmlns:xlink="http://www.w3.org/1999/xlink">
<g id="graph0" class="graph" transform="scale(1 1) rotate(0) translate(4 281)">
<title>src/logger/LoggerManager.cpp</title>
<polygon fill="white" stroke="transparent" points="-4,4 -4,-281 408,-281 408,4 -4,4"/>
<!-- Node1 -->
<g id="node1" class="node">
<title>Node1</title>
<g id="a_node1"><a xlink:title=" ">
<polygon fill="#bfbfbf" stroke="black" points="60.5,-257.5 60.5,-276.5 223.5,-276.5 223.5,-257.5 60.5,-257.5"/>
<text text-anchor="middle" x="142" y="-264.5" font-family="Helvetica,sans-Serif" font-size="10.00">src/logger/LoggerManager.cpp</text>
</a>
</g>
</g>
<!-- Node2 -->
<g id="node2" class="node">
<title>Node2</title>
<g id="a_node2"><a xlink:href="LoggerManager_8hpp.html" target="_top" xlink:title=" ">
<polygon fill="white" stroke="black" points="84,-190.5 84,-220.5 200,-220.5 200,-190.5 84,-190.5"/>
<text text-anchor="start" x="92" y="-208.5" font-family="Helvetica,sans-Serif" font-size="10.00">../../include/logger</text>
<text text-anchor="middle" x="142" y="-197.5" font-family="Helvetica,sans-Serif" font-size="10.00">/LoggerManager.hpp</text>
</a>
</g>
</g>
<!-- Node1&#45;&gt;Node2 -->
<g id="edge1" class="edge">
<title>Node1&#45;&gt;Node2</title>
<path fill="none" stroke="midnightblue" d="M142,-257.48C142,-250.47 142,-240.19 142,-230.7"/>
<polygon fill="midnightblue" stroke="midnightblue" points="145.5,-230.52 142,-220.52 138.5,-230.52 145.5,-230.52"/>
</g>
<!-- Node3 -->
<g id="node3" class="node">
<title>Node3</title>
<g id="a_node3"><a xlink:title=" ">
<polygon fill="white" stroke="#bfbfbf" points="0,-129 0,-148 38,-148 38,-129 0,-129"/>
<text text-anchor="middle" x="19" y="-136" font-family="Helvetica,sans-Serif" font-size="10.00">map</text>
</a>
</g>
</g>
<!-- Node2&#45;&gt;Node3 -->
<g id="edge2" class="edge">
<title>Node2&#45;&gt;Node3</title>
<path fill="none" stroke="midnightblue" d="M115.31,-190.4C94.11,-179.19 64.68,-163.64 43.95,-152.69"/>
<polygon fill="midnightblue" stroke="midnightblue" points="45.57,-149.58 35.1,-148.01 42.3,-155.77 45.57,-149.58"/>
</g>
<!-- Node4 -->
<g id="node4" class="node">
<title>Node4</title>
<g id="a_node4"><a xlink:title=" ">
<polygon fill="white" stroke="#bfbfbf" points="56,-129 56,-148 114,-148 114,-129 56,-129"/>
<text text-anchor="middle" x="85" y="-136" font-family="Helvetica,sans-Serif" font-size="10.00">memory</text>
</a>
</g>
</g>
<!-- Node2&#45;&gt;Node4 -->
<g id="edge3" class="edge">
<title>Node2&#45;&gt;Node4</title>
<path fill="none" stroke="midnightblue" d="M129.63,-190.4C120.74,-180.26 108.74,-166.57 99.41,-155.94"/>
<polygon fill="midnightblue" stroke="midnightblue" points="101.85,-153.41 92.62,-148.19 96.59,-158.02 101.85,-153.41"/>
</g>
<!-- Node5 -->
<g id="node5" class="node">
<title>Node5</title>
<g id="a_node5"><a xlink:href="ALogger_8hpp.html" target="_top" xlink:title=" ">
<polygon fill="white" stroke="black" points="174,-56.5 174,-86.5 278,-86.5 278,-56.5 174,-56.5"/>
<text text-anchor="start" x="182" y="-74.5" font-family="Helvetica,sans-Serif" font-size="10.00">../../include/logger</text>
<text text-anchor="middle" x="226" y="-63.5" font-family="Helvetica,sans-Serif" font-size="10.00">/ALogger.hpp</text>
</a>
</g>
</g>
<!-- Node2&#45;&gt;Node5 -->
<g id="edge4" class="edge">
<title>Node2&#45;&gt;Node5</title>
<path fill="none" stroke="midnightblue" d="M142.46,-190.43C143.62,-173.26 147.6,-143.92 161,-123 168.74,-110.92 180.41,-100.54 191.73,-92.4"/>
<polygon fill="midnightblue" stroke="midnightblue" points="193.94,-95.13 200.25,-86.61 190.01,-89.33 193.94,-95.13"/>
</g>
<!-- Node10 -->
<g id="node10" class="node">
<title>Node10</title>
<g id="a_node10"><a xlink:href="ConsoleLogger_8hpp.html" target="_top" xlink:title=" ">
<polygon fill="white" stroke="black" points="170,-123.5 170,-153.5 282,-153.5 282,-123.5 170,-123.5"/>
<text text-anchor="start" x="178" y="-141.5" font-family="Helvetica,sans-Serif" font-size="10.00">../../include/logger</text>
<text text-anchor="middle" x="226" y="-130.5" font-family="Helvetica,sans-Serif" font-size="10.00">/ConsoleLogger.hpp</text>
</a>
</g>
</g>
<!-- Node2&#45;&gt;Node10 -->
<g id="edge9" class="edge">
<title>Node2&#45;&gt;Node10</title>
<path fill="none" stroke="midnightblue" d="M160.23,-190.4C171.78,-181.45 186.92,-169.74 199.76,-159.8"/>
<polygon fill="midnightblue" stroke="midnightblue" points="202.04,-162.46 207.81,-153.58 197.76,-156.93 202.04,-162.46"/>
</g>
<!-- Node11 -->
<g id="node11" class="node">
<title>Node11</title>
<g id="a_node11"><a xlink:href="FileLogger_8hpp.html" target="_top" xlink:title=" ">
<polygon fill="white" stroke="black" points="300,-123.5 300,-153.5 404,-153.5 404,-123.5 300,-123.5"/>
<text text-anchor="start" x="308" y="-141.5" font-family="Helvetica,sans-Serif" font-size="10.00">../../include/logger</text>
<text text-anchor="middle" x="352" y="-130.5" font-family="Helvetica,sans-Serif" font-size="10.00">/FileLogger.hpp</text>
</a>
</g>
</g>
<!-- Node2&#45;&gt;Node11 -->
<g id="edge11" class="edge">
<title>Node2&#45;&gt;Node11</title>
<path fill="none" stroke="midnightblue" d="M187.31,-190.48C219.35,-180.56 262.5,-167.2 296.6,-156.65"/>
<polygon fill="midnightblue" stroke="midnightblue" points="297.89,-159.91 306.41,-153.61 295.82,-153.22 297.89,-159.91"/>
</g>
<!-- Node6 -->
<g id="node6" class="node">
<title>Node6</title>
<g id="a_node6"><a xlink:title=" ">
<polygon fill="white" stroke="#bfbfbf" points="96,-0.5 96,-19.5 140,-19.5 140,-0.5 96,-0.5"/>
<text text-anchor="middle" x="118" y="-7.5" font-family="Helvetica,sans-Serif" font-size="10.00">ctime</text>
</a>
</g>
</g>
<!-- Node5&#45;&gt;Node6 -->
<g id="edge5" class="edge">
<title>Node5&#45;&gt;Node6</title>
<path fill="none" stroke="midnightblue" d="M200.41,-56.4C182.93,-46.77 159.91,-34.09 142.64,-24.58"/>
<polygon fill="midnightblue" stroke="midnightblue" points="144.16,-21.42 133.71,-19.66 140.78,-27.55 144.16,-21.42"/>
</g>
<!-- Node7 -->
<g id="node7" class="node">
<title>Node7</title>
<g id="a_node7"><a xlink:title=" ">
<polygon fill="white" stroke="#bfbfbf" points="158,-0.5 158,-19.5 218,-19.5 218,-0.5 158,-0.5"/>
<text text-anchor="middle" x="188" y="-7.5" font-family="Helvetica,sans-Serif" font-size="10.00">iostream</text>
</a>
</g>
</g>
<!-- Node5&#45;&gt;Node7 -->
<g id="edge6" class="edge">
<title>Node5&#45;&gt;Node7</title>
<path fill="none" stroke="midnightblue" d="M216.99,-56.4C211.59,-47.93 204.67,-37.1 198.95,-28.14"/>
<polygon fill="midnightblue" stroke="midnightblue" points="201.86,-26.2 193.53,-19.66 195.96,-29.97 201.86,-26.2"/>
</g>
<!-- Node8 -->
<g id="node8" class="node">
<title>Node8</title>
<g id="a_node8"><a xlink:title=" ">
<polygon fill="white" stroke="#bfbfbf" points="236,-0.5 236,-19.5 292,-19.5 292,-0.5 236,-0.5"/>
<text text-anchor="middle" x="264" y="-7.5" font-family="Helvetica,sans-Serif" font-size="10.00">sstream</text>
</a>
</g>
</g>
<!-- Node5&#45;&gt;Node8 -->
<g id="edge7" class="edge">
<title>Node5&#45;&gt;Node8</title>
<path fill="none" stroke="midnightblue" d="M235.01,-56.4C240.41,-47.93 247.33,-37.1 253.05,-28.14"/>
<polygon fill="midnightblue" stroke="midnightblue" points="256.04,-29.97 258.47,-19.66 250.14,-26.2 256.04,-29.97"/>
</g>
<!-- Node9 -->
<g id="node9" class="node">
<title>Node9</title>
<g id="a_node9"><a xlink:title=" ">
<polygon fill="white" stroke="#bfbfbf" points="310,-0.5 310,-19.5 354,-19.5 354,-0.5 310,-0.5"/>
<text text-anchor="middle" x="332" y="-7.5" font-family="Helvetica,sans-Serif" font-size="10.00">string</text>
</a>
</g>
</g>
<!-- Node5&#45;&gt;Node9 -->
<g id="edge8" class="edge">
<title>Node5&#45;&gt;Node9</title>
<path fill="none" stroke="midnightblue" d="M251.12,-56.4C268.27,-46.77 290.86,-34.09 307.81,-24.58"/>
<polygon fill="midnightblue" stroke="midnightblue" points="309.57,-27.6 316.58,-19.66 306.14,-21.5 309.57,-27.6"/>
</g>
<!-- Node10&#45;&gt;Node5 -->
<g id="edge10" class="edge">
<title>Node10&#45;&gt;Node5</title>
<path fill="none" stroke="midnightblue" d="M226,-123.4C226,-115.64 226,-105.81 226,-96.86"/>
<polygon fill="midnightblue" stroke="midnightblue" points="229.5,-96.58 226,-86.58 222.5,-96.58 229.5,-96.58"/>
</g>
<!-- Node11&#45;&gt;Node5 -->
<g id="edge13" class="edge">
<title>Node11&#45;&gt;Node5</title>
<path fill="none" stroke="midnightblue" d="M324.66,-123.4C306.41,-113.98 282.22,-101.5 262.36,-91.26"/>
<polygon fill="midnightblue" stroke="midnightblue" points="263.78,-88.05 253.29,-86.58 260.57,-94.27 263.78,-88.05"/>
</g>
<!-- Node12 -->
<g id="node12" class="node">
<title>Node12</title>
<g id="a_node12"><a xlink:title=" ">
<polygon fill="white" stroke="#bfbfbf" points="324.5,-62 324.5,-81 379.5,-81 379.5,-62 324.5,-62"/>
<text text-anchor="middle" x="352" y="-69" font-family="Helvetica,sans-Serif" font-size="10.00">fstream</text>
</a>
</g>
</g>
<!-- Node11&#45;&gt;Node12 -->
<g id="edge12" class="edge">
<title>Node11&#45;&gt;Node12</title>
<path fill="none" stroke="midnightblue" d="M352,-123.4C352,-114.06 352,-101.71 352,-91.52"/>
<polygon fill="midnightblue" stroke="midnightblue" points="355.5,-91.19 352,-81.19 348.5,-91.19 355.5,-91.19"/>
</g>
</g>
</svg>
