<?xml version="1.0" encoding="UTF-8" standalone="no"?>
<!DOCTYPE svg PUBLIC "-//W3C//DTD SVG 1.1//EN"
 "http://www.w3.org/Graphics/SVG/1.1/DTD/svg11.dtd">
<!-- Generated by graphviz version 2.43.0 (0)
 -->
<!-- Title: src/main.cpp Pages: 1 -->
<svg width="424pt" height="285pt"
 viewBox="0.00 0.00 423.50 285.00" xmlns="http://www.w3.org/2000/svg" xmlns:xlink="http://www.w3.org/1999/xlink">
<g id="graph0" class="graph" transform="scale(1 1) rotate(0) translate(4 281)">
<title>src/main.cpp</title>
<polygon fill="white" stroke="transparent" points="-4,4 -4,-281 419.5,-281 419.5,4 -4,4"/>
<!-- Node1 -->
<g id="node1" class="node">
<title>Node1</title>
<g id="a_node1"><a xlink:title=" ">
<polygon fill="#bfbfbf" stroke="black" points="0,-257.5 0,-276.5 79,-276.5 79,-257.5 0,-257.5"/>
<text text-anchor="middle" x="39.5" y="-264.5" font-family="Helvetica,sans-Serif" font-size="10.00">src/main.cpp</text>
</a>
</g>
</g>
<!-- Node2 -->
<g id="node2" class="node">
<title>Node2</title>
<g id="a_node2"><a xlink:title=" ">
<polygon fill="white" stroke="#bfbfbf" points="11.5,-0.5 11.5,-19.5 71.5,-19.5 71.5,-0.5 11.5,-0.5"/>
<text text-anchor="middle" x="41.5" y="-7.5" font-family="Helvetica,sans-Serif" font-size="10.00">iostream</text>
</a>
</g>
</g>
<!-- Node1&#45;&gt;Node2 -->
<g id="edge1" class="edge">
<title>Node1&#45;&gt;Node2</title>
<path fill="none" stroke="midnightblue" d="M34.64,-257.41C22.73,-235.35 -6.27,-174.83 2.5,-123 8.31,-88.63 23.49,-50.74 33.11,-29.01"/>
<polygon fill="midnightblue" stroke="midnightblue" points="36.38,-30.28 37.32,-19.73 30,-27.39 36.38,-30.28"/>
</g>
<!-- Node3 -->
<g id="node3" class="node">
<title>Node3</title>
<g id="a_node3"><a xlink:href="LoggerManager_8hpp.html" target="_top" xlink:title=" ">
<polygon fill="white" stroke="black" points="59,-190.5 59,-220.5 190,-220.5 190,-190.5 59,-190.5"/>
<text text-anchor="start" x="67" y="-208.5" font-family="Helvetica,sans-Serif" font-size="10.00">../include/logger/Logger</text>
<text text-anchor="middle" x="124.5" y="-197.5" font-family="Helvetica,sans-Serif" font-size="10.00">Manager.hpp</text>
</a>
</g>
</g>
<!-- Node1&#45;&gt;Node3 -->
<g id="edge2" class="edge">
<title>Node1&#45;&gt;Node3</title>
<path fill="none" stroke="midnightblue" d="M51.68,-257.48C63.19,-249.42 80.9,-237.02 95.97,-226.47"/>
<polygon fill="midnightblue" stroke="midnightblue" points="98.28,-229.12 104.47,-220.52 94.27,-223.39 98.28,-229.12"/>
</g>
<!-- Node4 -->
<g id="node4" class="node">
<title>Node4</title>
<g id="a_node4"><a xlink:title=" ">
<polygon fill="white" stroke="#bfbfbf" points="11.5,-129 11.5,-148 49.5,-148 49.5,-129 11.5,-129"/>
<text text-anchor="middle" x="30.5" y="-136" font-family="Helvetica,sans-Serif" font-size="10.00">map</text>
</a>
</g>
</g>
<!-- Node3&#45;&gt;Node4 -->
<g id="edge3" class="edge">
<title>Node3&#45;&gt;Node4</title>
<path fill="none" stroke="midnightblue" d="M104.1,-190.4C88.49,-179.6 67.02,-164.76 51.31,-153.89"/>
<polygon fill="midnightblue" stroke="midnightblue" points="53.02,-150.82 42.8,-148.01 49.04,-156.57 53.02,-150.82"/>
</g>
<!-- Node5 -->
<g id="node5" class="node">
<title>Node5</title>
<g id="a_node5"><a xlink:title=" ">
<polygon fill="white" stroke="#bfbfbf" points="67.5,-129 67.5,-148 125.5,-148 125.5,-129 67.5,-129"/>
<text text-anchor="middle" x="96.5" y="-136" font-family="Helvetica,sans-Serif" font-size="10.00">memory</text>
</a>
</g>
</g>
<!-- Node3&#45;&gt;Node5 -->
<g id="edge4" class="edge">
<title>Node3&#45;&gt;Node5</title>
<path fill="none" stroke="midnightblue" d="M118.42,-190.4C114.27,-180.76 108.74,-167.91 104.27,-157.54"/>
<polygon fill="midnightblue" stroke="midnightblue" points="107.42,-155.99 100.25,-148.19 100.99,-158.76 107.42,-155.99"/>
</g>
<!-- Node6 -->
<g id="node6" class="node">
<title>Node6</title>
<g id="a_node6"><a xlink:href="ALogger_8hpp.html" target="_top" xlink:title=" ">
<polygon fill="white" stroke="black" points="143.5,-56.5 143.5,-86.5 247.5,-86.5 247.5,-56.5 143.5,-56.5"/>
<text text-anchor="start" x="151.5" y="-74.5" font-family="Helvetica,sans-Serif" font-size="10.00">../../include/logger</text>
<text text-anchor="middle" x="195.5" y="-63.5" font-family="Helvetica,sans-Serif" font-size="10.00">/ALogger.hpp</text>
</a>
</g>
</g>
<!-- Node3&#45;&gt;Node6 -->
<g id="edge5" class="edge">
<title>Node3&#45;&gt;Node6</title>
<path fill="none" stroke="midnightblue" d="M132.1,-190.37C144.32,-167.65 168.47,-122.75 183.18,-95.4"/>
<polygon fill="midnightblue" stroke="midnightblue" points="186.3,-96.99 187.96,-86.52 180.14,-93.67 186.3,-96.99"/>
</g>
<!-- Node10 -->
<g id="node10" class="node">
<title>Node10</title>
<g id="a_node10"><a xlink:href="ConsoleLogger_8hpp.html" target="_top" xlink:title=" ">
<polygon fill="white" stroke="black" points="181.5,-123.5 181.5,-153.5 293.5,-153.5 293.5,-123.5 181.5,-123.5"/>
<text text-anchor="start" x="189.5" y="-141.5" font-family="Helvetica,sans-Serif" font-size="10.00">../../include/logger</text>
<text text-anchor="middle" x="237.5" y="-130.5" font-family="Helvetica,sans-Serif" font-size="10.00">/ConsoleLogger.hpp</text>
</a>
</g>
</g>
<!-- Node3&#45;&gt;Node10 -->
<g id="edge10" class="edge">
<title>Node3&#45;&gt;Node10</title>
<path fill="none" stroke="midnightblue" d="M149.02,-190.4C165.16,-181.11 186.49,-168.84 204.17,-158.67"/>
<polygon fill="midnightblue" stroke="midnightblue" points="206.11,-161.6 213.03,-153.58 202.62,-155.53 206.11,-161.6"/>
</g>
<!-- Node11 -->
<g id="node11" class="node">
<title>Node11</title>
<g id="a_node11"><a xlink:href="FileLogger_8hpp.html" target="_top" xlink:title=" ">
<polygon fill="white" stroke="black" points="311.5,-123.5 311.5,-153.5 415.5,-153.5 415.5,-123.5 311.5,-123.5"/>
<text text-anchor="start" x="319.5" y="-141.5" font-family="Helvetica,sans-Serif" font-size="10.00">../../include/logger</text>
<text text-anchor="middle" x="363.5" y="-130.5" font-family="Helvetica,sans-Serif" font-size="10.00">/FileLogger.hpp</text>
</a>
</g>
</g>
<!-- Node3&#45;&gt;Node11 -->
<g id="edge12" class="edge">
<title>Node3&#45;&gt;Node11</title>
<path fill="none" stroke="midnightblue" d="M176.07,-190.48C213,-180.43 262.91,-166.86 301.94,-156.24"/>
<polygon fill="midnightblue" stroke="midnightblue" points="302.88,-159.61 311.62,-153.61 301.05,-152.86 302.88,-159.61"/>
</g>
<!-- Node6&#45;&gt;Node2 -->
<g id="edge7" class="edge">
<title>Node6&#45;&gt;Node2</title>
<path fill="none" stroke="midnightblue" d="M159,-56.4C132.93,-46.33 98.21,-32.91 73.28,-23.28"/>
<polygon fill="midnightblue" stroke="midnightblue" points="74.5,-20 63.91,-19.66 71.97,-26.53 74.5,-20"/>
</g>
<!-- Node7 -->
<g id="node7" class="node">
<title>Node7</title>
<g id="a_node7"><a xlink:title=" ">
<polygon fill="white" stroke="#bfbfbf" points="105.5,-0.5 105.5,-19.5 149.5,-19.5 149.5,-0.5 105.5,-0.5"/>
<text text-anchor="middle" x="127.5" y="-7.5" font-family="Helvetica,sans-Serif" font-size="10.00">ctime</text>
</a>
</g>
</g>
<!-- Node6&#45;&gt;Node7 -->
<g id="edge6" class="edge">
<title>Node6&#45;&gt;Node7</title>
<path fill="none" stroke="midnightblue" d="M179.38,-56.4C169.1,-47.4 155.75,-35.72 145.17,-26.47"/>
<polygon fill="midnightblue" stroke="midnightblue" points="147.23,-23.61 137.39,-19.66 142.62,-28.88 147.23,-23.61"/>
</g>
<!-- Node8 -->
<g id="node8" class="node">
<title>Node8</title>
<g id="a_node8"><a xlink:title=" ">
<polygon fill="white" stroke="#bfbfbf" points="167.5,-0.5 167.5,-19.5 223.5,-19.5 223.5,-0.5 167.5,-0.5"/>
<text text-anchor="middle" x="195.5" y="-7.5" font-family="Helvetica,sans-Serif" font-size="10.00">sstream</text>
</a>
</g>
</g>
<!-- Node6&#45;&gt;Node8 -->
<g id="edge8" class="edge">
<title>Node6&#45;&gt;Node8</title>
<path fill="none" stroke="midnightblue" d="M195.5,-56.4C195.5,-48.47 195.5,-38.46 195.5,-29.86"/>
<polygon fill="midnightblue" stroke="midnightblue" points="199,-29.66 195.5,-19.66 192,-29.66 199,-29.66"/>
</g>
<!-- Node9 -->
<g id="node9" class="node">
<title>Node9</title>
<g id="a_node9"><a xlink:title=" ">
<polygon fill="white" stroke="#bfbfbf" points="241.5,-0.5 241.5,-19.5 285.5,-19.5 285.5,-0.5 241.5,-0.5"/>
<text text-anchor="middle" x="263.5" y="-7.5" font-family="Helvetica,sans-Serif" font-size="10.00">string</text>
</a>
</g>
</g>
<!-- Node6&#45;&gt;Node9 -->
<g id="edge9" class="edge">
<title>Node6&#45;&gt;Node9</title>
<path fill="none" stroke="midnightblue" d="M211.62,-56.4C221.9,-47.4 235.25,-35.72 245.83,-26.47"/>
<polygon fill="midnightblue" stroke="midnightblue" points="248.38,-28.88 253.61,-19.66 243.77,-23.61 248.38,-28.88"/>
</g>
<!-- Node10&#45;&gt;Node6 -->
<g id="edge11" class="edge">
<title>Node10&#45;&gt;Node6</title>
<path fill="none" stroke="midnightblue" d="M228.39,-123.4C223.05,-115.13 216.18,-104.51 210.1,-95.1"/>
<polygon fill="midnightblue" stroke="midnightblue" points="212.96,-93.08 204.6,-86.58 207.08,-96.88 212.96,-93.08"/>
</g>
<!-- Node11&#45;&gt;Node6 -->
<g id="edge14" class="edge">
<title>Node11&#45;&gt;Node6</title>
<path fill="none" stroke="midnightblue" d="M327.05,-123.4C301.95,-113.69 268.41,-100.71 241.48,-90.29"/>
<polygon fill="midnightblue" stroke="midnightblue" points="242.47,-86.92 231.88,-86.58 239.95,-93.45 242.47,-86.92"/>
</g>
<!-- Node12 -->
<g id="node12" class="node">
<title>Node12</title>
<g id="a_node12"><a xlink:title=" ">
<polygon fill="white" stroke="#bfbfbf" points="336,-62 336,-81 391,-81 391,-62 336,-62"/>
<text text-anchor="middle" x="363.5" y="-69" font-family="Helvetica,sans-Serif" font-size="10.00">fstream</text>
</a>
</g>
</g>
<!-- Node11&#45;&gt;Node12 -->
<g id="edge13" class="edge">
<title>Node11&#45;&gt;Node12</title>
<path fill="none" stroke="midnightblue" d="M363.5,-123.4C363.5,-114.06 363.5,-101.71 363.5,-91.52"/>
<polygon fill="midnightblue" stroke="midnightblue" points="367,-91.19 363.5,-81.19 360,-91.19 367,-91.19"/>
</g>
</g>
</svg>
