<?xml version="1.0" encoding="UTF-8" standalone="no"?>
<!DOCTYPE svg PUBLIC "-//W3C//DTD SVG 1.1//EN"
 "http://www.w3.org/Graphics/SVG/1.1/DTD/svg11.dtd">
<!-- Generated by graphviz version 2.43.0 (0)
 -->
<!-- Title: main Pages: 1 -->
<svg width="214pt" height="235pt"
 viewBox="0.00 0.00 214.00 235.00" xmlns="http://www.w3.org/2000/svg" xmlns:xlink="http://www.w3.org/1999/xlink">
<g id="graph0" class="graph" transform="scale(1 1) rotate(0) translate(4 231)">
<title>main</title>
<polygon fill="white" stroke="transparent" points="-4,4 -4,-231 210,-231 210,4 -4,4"/>
<!-- Node1 -->
<g id="node1" class="node">
<title>Node1</title>
<g id="a_node1"><a xlink:title=" ">
<polygon fill="#bfbfbf" stroke="black" points="0,-104 0,-123 41,-123 41,-104 0,-104"/>
<text text-anchor="middle" x="20.5" y="-111" font-family="Helvetica,sans-Serif" font-size="10.00">main</text>
</a>
</g>
</g>
<!-- Node2 -->
<g id="node2" class="node">
<title>Node2</title>
<g id="a_node2"><a xlink:href="classlogger_1_1LoggerManager.html#ad140bde7c3a4c9241fb147f2c864d018" target="_top" xlink:title="Provides access to the singleton instance of LoggerManager.">
<polygon fill="white" stroke="black" points="77,-196.5 77,-226.5 206,-226.5 206,-196.5 77,-196.5"/>
<text text-anchor="start" x="85" y="-214.5" font-family="Helvetica,sans-Serif" font-size="10.00">logger::LoggerManager</text>
<text text-anchor="middle" x="141.5" y="-203.5" font-family="Helvetica,sans-Serif" font-size="10.00">::getInstance</text>
</a>
</g>
</g>
<!-- Node1&#45;&gt;Node2 -->
<g id="edge1" class="edge">
<title>Node1&#45;&gt;Node2</title>
<path fill="none" stroke="midnightblue" d="M26.32,-123.05C34.64,-138.62 53.12,-169.56 77,-187.5 78.84,-188.88 80.76,-190.19 82.75,-191.43"/>
<polygon fill="midnightblue" stroke="midnightblue" points="81.37,-194.67 91.82,-196.44 84.76,-188.54 81.37,-194.67"/>
</g>
<!-- Node3 -->
<g id="node3" class="node">
<title>Node3</title>
<g id="a_node3"><a xlink:href="classlogger_1_1LoggerManager.html#ae26ebcbad9c6e4f85769438abac46db5" target="_top" xlink:title="Registers a new logger with the manager.">
<polygon fill="white" stroke="black" points="77,-147.5 77,-177.5 206,-177.5 206,-147.5 77,-147.5"/>
<text text-anchor="start" x="85" y="-165.5" font-family="Helvetica,sans-Serif" font-size="10.00">logger::LoggerManager</text>
<text text-anchor="middle" x="141.5" y="-154.5" font-family="Helvetica,sans-Serif" font-size="10.00">::registerLogger</text>
</a>
</g>
</g>
<!-- Node1&#45;&gt;Node3 -->
<g id="edge2" class="edge">
<title>Node1&#45;&gt;Node3</title>
<path fill="none" stroke="midnightblue" d="M41.15,-122.71C51.71,-127.57 64.99,-133.53 77,-138.5 81.16,-140.22 85.48,-141.96 89.84,-143.68"/>
<polygon fill="midnightblue" stroke="midnightblue" points="88.77,-147.02 99.36,-147.38 91.31,-140.49 88.77,-147.02"/>
</g>
<!-- Node4 -->
<g id="node4" class="node">
<title>Node4</title>
<g id="a_node4"><a xlink:href="classlogger_1_1LoggerManager.html#a7237ff5a6cead3d670328feb6ea60cbd" target="_top" xlink:title="Sets the global log level.">
<polygon fill="white" stroke="black" points="77,-98.5 77,-128.5 206,-128.5 206,-98.5 77,-98.5"/>
<text text-anchor="start" x="85" y="-116.5" font-family="Helvetica,sans-Serif" font-size="10.00">logger::LoggerManager</text>
<text text-anchor="middle" x="141.5" y="-105.5" font-family="Helvetica,sans-Serif" font-size="10.00">::setGlobalLogLevel</text>
</a>
</g>
</g>
<!-- Node1&#45;&gt;Node4 -->
<g id="edge3" class="edge">
<title>Node1&#45;&gt;Node4</title>
<path fill="none" stroke="midnightblue" d="M41.15,-113.5C48.47,-113.5 57.28,-113.5 66.59,-113.5"/>
<polygon fill="midnightblue" stroke="midnightblue" points="66.84,-117 76.84,-113.5 66.84,-110 66.84,-117"/>
</g>
<!-- Node5 -->
<g id="node5" class="node">
<title>Node5</title>
<g id="a_node5"><a xlink:href="classlogger_1_1LoggerManager.html#a45d840b2a9bd9fbfccb34689ddc79527" target="_top" xlink:title="Sets the log level for a specific logger.">
<polygon fill="white" stroke="black" points="77,-49.5 77,-79.5 206,-79.5 206,-49.5 77,-49.5"/>
<text text-anchor="start" x="85" y="-67.5" font-family="Helvetica,sans-Serif" font-size="10.00">logger::LoggerManager</text>
<text text-anchor="middle" x="141.5" y="-56.5" font-family="Helvetica,sans-Serif" font-size="10.00">::setLoggerLevel</text>
</a>
</g>
</g>
<!-- Node1&#45;&gt;Node5 -->
<g id="edge4" class="edge">
<title>Node1&#45;&gt;Node5</title>
<path fill="none" stroke="midnightblue" d="M41.21,-104.79C51.79,-100.16 65.07,-94.43 77,-89.5 82,-87.44 87.23,-85.31 92.45,-83.22"/>
<polygon fill="midnightblue" stroke="midnightblue" points="93.8,-86.45 101.8,-79.5 91.22,-79.95 93.8,-86.45"/>
</g>
<!-- Node6 -->
<g id="node6" class="node">
<title>Node6</title>
<g id="a_node6"><a xlink:href="classlogger_1_1LoggerManager.html#adf2a8a1ad83a5404d6249518fa460971" target="_top" xlink:title="Unregisters a logger from the manager.">
<polygon fill="white" stroke="black" points="77,-0.5 77,-30.5 206,-30.5 206,-0.5 77,-0.5"/>
<text text-anchor="start" x="85" y="-18.5" font-family="Helvetica,sans-Serif" font-size="10.00">logger::LoggerManager</text>
<text text-anchor="middle" x="141.5" y="-7.5" font-family="Helvetica,sans-Serif" font-size="10.00">::unregisterLogger</text>
</a>
</g>
</g>
<!-- Node1&#45;&gt;Node6 -->
<g id="edge5" class="edge">
<title>Node1&#45;&gt;Node6</title>
<path fill="none" stroke="midnightblue" d="M26.66,-103.62C35.19,-88.16 53.64,-58.18 77,-40.5 79.43,-38.66 82,-36.95 84.68,-35.34"/>
<polygon fill="midnightblue" stroke="midnightblue" points="86.35,-38.41 93.48,-30.58 83.02,-32.25 86.35,-38.41"/>
</g>
</g>
</svg>
